<?xml version="1.0" encoding="UTF-8" standalone="no"?>
<!DOCTYPE svg PUBLIC "-//W3C//DTD SVG 1.1//EN" "http://www.w3.org/Graphics/SVG/1.1/DTD/svg11.dtd">
<svg width="100%" height="100%" viewBox="0 0 650 730" version="1.1" xmlns="http://www.w3.org/2000/svg" xmlns:xlink="http://www.w3.org/1999/xlink" xml:space="preserve" xmlns:serif="http://www.serif.com/" style="fill-rule:evenodd;clip-rule:evenodd;stroke-linejoin:round;stroke-miterlimit:2;">
    <g>
        <path d="M138.563,170.482C135.978,171.969 108.533,187.761 106.285,189.121C75.106,207.987 68.656,209.072 66.225,220.441C65.281,224.853 65.941,339.865 65.7,470.336C65.625,510.978 63.639,513.863 76.862,522.441C88.093,529.727 90.953,528.357 90.913,535.378C90.67,578 91.066,603.226 90.843,603.497C89.606,605.005 72.109,593.928 70.564,592.95C52.089,581.253 35.368,574.123 24.319,564.767C-1.368,543.018 0.066,515.693 0.088,502.066C0.42,302.091 -0.086,302.113 0.095,284.727C0.767,220.072 -3.793,197.459 12.891,176.541C27.342,158.423 29.561,160.649 127.622,103.34C133.317,100.012 181.956,71.586 198.943,61.98C245.913,35.419 245.667,35.021 249.761,32.731C296.297,6.695 318.115,-15.455 367.909,14.08C397.753,31.781 398.004,31.192 427.864,48.715C484.405,81.896 484.564,81.448 489.397,84.455C503.535,93.25 520.538,101.474 520.628,103.903C520.749,107.179 520.894,420.624 520.837,427.502C520.413,478.037 488.972,512.025 455.729,523.892C408.591,540.719 373.005,520.236 371.069,519.35C363.16,515.728 357.42,513.099 286.845,450.576C263.916,430.263 255.867,424.792 255.254,421.934C255.107,421.248 255.175,360.649 255.181,355.32C255.196,342.317 254.145,342.226 254.69,341.24C255.553,339.678 258.944,343.405 259.457,343.83C283.073,363.39 376.998,447.014 389.505,457.299C392.269,459.572 411.004,474.978 433.712,464.128C457.968,452.539 454.232,423.826 454.218,406.086C454.066,216.383 454.298,141.8 454.044,138.806C453.82,136.167 430.048,123.669 418.771,117.028C415.657,115.194 384.2,96.671 379.773,94.237C366.801,87.106 344.955,73.77 334.65,68.638C320.888,63.062 319.168,65.959 284.314,86.072C248.935,106.488 248.914,106.383 245.843,108.162C237.528,112.98 142.247,168.185 141.907,168.39C140.391,169.289 138.827,170.31 138.563,170.483L138.563,170.482ZM327.366,729.272C298.478,728.804 299.069,724.484 224.829,682.494C215.181,677.037 205.69,670.761 191.078,662.816C187.206,660.71 187.468,660.42 143.408,635.189C129.285,627.102 129.228,626.407 129.112,625.008C128.915,622.618 129.04,415.079 128.986,377.53C128.85,283.377 127.786,281.362 138.919,255.522C153.998,220.52 198.723,189.715 248.719,203.415C279.008,211.715 303.253,239.833 344.325,274.049C348.784,277.764 348.702,277.823 381.53,307.468C385.757,311.285 394.509,316.67 394.52,320.422C394.539,326.819 394.76,399.869 394.51,400.386C393.908,401.629 392.957,401.249 380.822,389.875C366.636,376.579 305.09,322.622 298.467,316.816C245.882,270.715 246.023,270.562 240.699,267.649C232.955,263.413 218.803,263.352 212.394,267.363C192.716,279.678 195.399,289.032 195.358,329.931C195.337,350.616 195.103,587.184 195.26,588.498C195.783,592.857 197.455,591.895 218.471,604.754C222.904,607.466 309.347,657.936 314.061,660.327C330.117,668.469 334.705,659.624 379.537,635C386.27,631.302 385.961,630.789 462.408,586.486C464.103,585.504 464.082,585.581 483.671,574.329C491.113,570.054 569.824,524.844 576.161,519.971C585.817,512.545 583.651,510.172 583.857,437.817C583.906,420.62 584.448,229.916 583.555,222.855C581.268,204.774 558.752,201.733 558.463,196.662C558.154,191.241 558.703,139.493 558.054,126.075C557.891,122.716 563.172,127.549 570.238,131.352C576.139,134.528 615.66,157.393 618.993,159.762C653.272,184.126 649.292,205.757 649.431,262.514C649.481,282.945 650.027,505.707 649.034,517.908C645.245,564.475 607.989,574.742 579.038,592.871C563.153,602.818 562.612,601.873 376.434,710.509C340.463,731.498 334.187,728.868 327.366,729.273L327.366,729.272Z" style="stroke:black;stroke-width:1px;"/>
    </g>
</svg>
