<?xml version="1.0" encoding="UTF-8" standalone="no"?><!DOCTYPE svg PUBLIC "-//W3C//DTD SVG 1.1//EN" "http://www.w3.org/Graphics/SVG/1.1/DTD/svg11.dtd"><svg width="100%" height="100%" viewBox="0 0 650 730" version="1.1" xmlns="http://www.w3.org/2000/svg" xmlns:xlink="http://www.w3.org/1999/xlink" xml:space="preserve" xmlns:serif="http://www.serif.com/" style="fill-rule:evenodd;clip-rule:evenodd;stroke-linejoin:round;stroke-miterlimit:2;"><g><path d="M138.563,170.482c-2.585,1.487 -30.03,17.279 -32.278,18.639c-31.179,18.866 -37.629,19.951 -40.06,31.32c-0.944,4.412 -0.284,119.424 -0.525,249.895c-0.075,40.642 -2.061,43.527 11.162,52.105c11.231,7.286 14.091,5.916 14.051,12.937c-0.243,42.622 0.153,67.848 -0.07,68.119c-1.237,1.508 -18.734,-9.569 -20.279,-10.547c-18.475,-11.697 -35.196,-18.827 -46.245,-28.183c-25.687,-21.749 -24.253,-49.074 -24.231,-62.701c0.332,-199.975 -0.174,-199.953 0.007,-217.339c0.672,-64.655 -3.888,-87.268 12.796,-108.186c14.451,-18.118 16.67,-15.892 114.731,-73.201c5.695,-3.328 54.334,-31.754 71.321,-41.36c46.97,-26.561 46.724,-26.959 50.818,-29.249c46.536,-26.036 68.354,-48.186 118.148,-18.651c29.844,17.701 30.095,17.112 59.955,34.635c56.541,33.181 56.7,32.733 61.533,35.74c14.138,8.795 31.141,17.019 31.231,19.448c0.121,3.276 0.266,316.721 0.209,323.599c-0.424,50.535 -31.865,84.523 -65.108,96.39c-47.138,16.827 -82.724,-3.656 -84.66,-4.542c-7.909,-3.622 -13.649,-6.251 -84.224,-68.774c-22.929,-20.313 -30.978,-25.784 -31.591,-28.642c-0.147,-0.686 -0.079,-61.285 -0.073,-66.614c0.015,-13.003 -1.036,-13.094 -0.491,-14.08c0.863,-1.562 4.254,2.165 4.767,2.59c23.616,19.56 117.541,103.184 130.048,113.469c2.764,2.273 21.499,17.679 44.207,6.829c24.256,-11.589 20.52,-40.302 20.506,-58.042c-0.152,-189.703 0.08,-264.286 -0.174,-267.28c-0.224,-2.639 -23.996,-15.137 -35.273,-21.778c-3.114,-1.834 -34.571,-20.357 -38.998,-22.791c-12.972,-7.131 -34.818,-20.467 -45.123,-25.599c-13.762,-5.576 -15.482,-2.679 -50.336,17.434c-35.379,20.416 -35.4,20.311 -38.471,22.09c-8.315,4.818 -103.596,60.023 -103.936,60.228c-1.516,0.899 -3.08,1.92 -3.344,2.093Zm188.803,558.79c-28.888,-0.468 -28.297,-4.788 -102.537,-46.778c-9.648,-5.457 -19.139,-11.733 -33.751,-19.678c-3.872,-2.106 -3.61,-2.396 -47.67,-27.627c-14.123,-8.087 -14.18,-8.782 -14.296,-10.181c-0.197,-2.39 -0.072,-209.929 -0.126,-247.478c-0.136,-94.153 -1.2,-96.168 9.933,-122.008c15.079,-35.002 59.804,-65.807 109.8,-52.107c30.289,8.3 54.534,36.418 95.606,70.634c4.459,3.715 4.377,3.774 37.205,33.419c4.227,3.817 12.979,9.202 12.99,12.954c0.019,6.397 0.24,79.447 -0.01,79.964c-0.602,1.243 -1.553,0.863 -13.688,-10.511c-14.186,-13.296 -75.732,-67.253 -82.355,-73.059c-52.585,-46.101 -52.444,-46.254 -57.768,-49.167c-7.744,-4.236 -21.896,-4.297 -28.305,-0.286c-19.678,12.315 -16.995,21.669 -17.036,62.568c-0.021,20.685 -0.255,257.253 -0.098,258.567c0.523,4.359 2.195,3.397 23.211,16.256c4.433,2.712 90.876,53.182 95.59,55.573c16.056,8.142 20.644,-0.703 65.476,-25.327c6.733,-3.698 6.424,-4.211 82.871,-48.514c1.695,-0.982 1.674,-0.905 21.263,-12.157c7.442,-4.275 86.153,-49.485 92.49,-54.358c9.656,-7.426 7.49,-9.799 7.696,-82.154c0.049,-17.197 0.591,-207.901 -0.302,-214.962c-2.287,-18.081 -24.803,-21.122 -25.092,-26.193c-0.309,-5.421 0.24,-57.169 -0.409,-70.587c-0.163,-3.359 5.118,1.474 12.184,5.277c5.901,3.176 45.422,26.041 48.755,28.41c34.279,24.364 30.299,45.995 30.438,102.752c0.05,20.431 0.596,243.193 -0.397,255.394c-3.789,46.567 -41.045,56.834 -69.996,74.963c-15.885,9.947 -16.426,9.002 -202.604,117.638c-35.971,20.989 -42.247,18.359 -49.068,18.764Z" style="fill:#b3e600;"/></g></svg>